<?xml version="1.0" standalone="no"?>
<svg xmlns:xlink="http://www.w3.org/1999/xlink" id="wave" style="transform:rotate(180deg); transition: 0.3s" viewBox="0 0 1440 100" version="1.1" xmlns="http://www.w3.org/2000/svg"><defs><linearGradient id="sw-gradient-0" x1="0" x2="0" y1="1" y2="0"><stop stop-color="rgba(243, 244, 246, 1)" offset="0%"/><stop stop-color="rgba(243, 244, 246, 1)" offset="100%"/></linearGradient></defs><path style="transform:translate(0, 0px); opacity:1" fill="url(#sw-gradient-0)" d="M0,80L26.7,80C53.3,80,107,80,160,81.7C213.3,83,267,87,320,83.3C373.3,80,427,70,480,65C533.3,60,587,60,640,53.3C693.3,47,747,33,800,25C853.3,17,907,13,960,18.3C1013.3,23,1067,37,1120,36.7C1173.3,37,1227,23,1280,16.7C1333.3,10,1387,10,1440,16.7C1493.3,23,1547,37,1600,48.3C1653.3,60,1707,70,1760,68.3C1813.3,67,1867,53,1920,48.3C1973.3,43,2027,47,2080,55C2133.3,63,2187,77,2240,76.7C2293.3,77,2347,63,2400,48.3C2453.3,33,2507,17,2560,10C2613.3,3,2667,7,2720,6.7C2773.3,7,2827,3,2880,11.7C2933.3,20,2987,40,3040,53.3C3093.3,67,3147,73,3200,75C3253.3,77,3307,73,3360,68.3C3413.3,63,3467,57,3520,46.7C3573.3,37,3627,23,3680,16.7C3733.3,10,3787,10,3813,10L3840,10L3840,100L3813.3,100C3786.7,100,3733,100,3680,100C3626.7,100,3573,100,3520,100C3466.7,100,3413,100,3360,100C3306.7,100,3253,100,3200,100C3146.7,100,3093,100,3040,100C2986.7,100,2933,100,2880,100C2826.7,100,2773,100,2720,100C2666.7,100,2613,100,2560,100C2506.7,100,2453,100,2400,100C2346.7,100,2293,100,2240,100C2186.7,100,2133,100,2080,100C2026.7,100,1973,100,1920,100C1866.7,100,1813,100,1760,100C1706.7,100,1653,100,1600,100C1546.7,100,1493,100,1440,100C1386.7,100,1333,100,1280,100C1226.7,100,1173,100,1120,100C1066.7,100,1013,100,960,100C906.7,100,853,100,800,100C746.7,100,693,100,640,100C586.7,100,533,100,480,100C426.7,100,373,100,320,100C266.7,100,213,100,160,100C106.7,100,53,100,27,100L0,100Z"/></svg>