<?xml version="1.0" standalone="no"?>
<svg xmlns:xlink="http://www.w3.org/1999/xlink" id="wave" style="transform:rotate(180deg); transition: 0.3s" viewBox="0 0 1440 100" version="1.1" xmlns="http://www.w3.org/2000/svg"><defs><linearGradient id="sw-gradient-0" x1="0" x2="0" y1="1" y2="0"><stop stop-color="rgba(243, 244, 246, 1)" offset="0%"/><stop stop-color="rgba(243, 244, 246, 1)" offset="100%"/></linearGradient></defs><path style="transform:translate(0, 0px); opacity:1" fill="url(#sw-gradient-0)" d="M0,90L26.7,90C53.3,90,107,90,160,86.7C213.3,83,267,77,320,73.3C373.3,70,427,70,480,60C533.3,50,587,30,640,31.7C693.3,33,747,57,800,65C853.3,73,907,67,960,56.7C1013.3,47,1067,33,1120,31.7C1173.3,30,1227,40,1280,41.7C1333.3,43,1387,37,1440,43.3C1493.3,50,1547,70,1600,65C1653.3,60,1707,30,1760,25C1813.3,20,1867,40,1920,55C1973.3,70,2027,80,2080,75C2133.3,70,2187,50,2240,40C2293.3,30,2347,30,2400,36.7C2453.3,43,2507,57,2560,51.7C2613.3,47,2667,23,2720,13.3C2773.3,3,2827,7,2880,6.7C2933.3,7,2987,3,3040,15C3093.3,27,3147,53,3200,61.7C3253.3,70,3307,60,3360,53.3C3413.3,47,3467,43,3520,45C3573.3,47,3627,53,3680,55C3733.3,57,3787,53,3813,51.7L3840,50L3840,100L3813.3,100C3786.7,100,3733,100,3680,100C3626.7,100,3573,100,3520,100C3466.7,100,3413,100,3360,100C3306.7,100,3253,100,3200,100C3146.7,100,3093,100,3040,100C2986.7,100,2933,100,2880,100C2826.7,100,2773,100,2720,100C2666.7,100,2613,100,2560,100C2506.7,100,2453,100,2400,100C2346.7,100,2293,100,2240,100C2186.7,100,2133,100,2080,100C2026.7,100,1973,100,1920,100C1866.7,100,1813,100,1760,100C1706.7,100,1653,100,1600,100C1546.7,100,1493,100,1440,100C1386.7,100,1333,100,1280,100C1226.7,100,1173,100,1120,100C1066.7,100,1013,100,960,100C906.7,100,853,100,800,100C746.7,100,693,100,640,100C586.7,100,533,100,480,100C426.7,100,373,100,320,100C266.7,100,213,100,160,100C106.7,100,53,100,27,100L0,100Z"/></svg>