<?xml version="1.0" standalone="no"?>
<svg xmlns:xlink="http://www.w3.org/1999/xlink" id="wave" style="transform:rotate(180deg); transition: 0.3s" viewBox="0 0 1440 120" version="1.1" xmlns="http://www.w3.org/2000/svg"><defs><linearGradient id="sw-gradient-0" x1="0" x2="0" y1="1" y2="0"><stop stop-color="rgba(243, 244, 246, 1)" offset="0%"/><stop stop-color="rgba(243, 244, 246, 1)" offset="100%"/></linearGradient></defs><path style="transform:translate(0, 0px); opacity:1" fill="url(#sw-gradient-0)" d="M0,96L26.7,96C53.3,96,107,96,160,98C213.3,100,267,104,320,100C373.3,96,427,84,480,78C533.3,72,587,72,640,64C693.3,56,747,40,800,30C853.3,20,907,16,960,22C1013.3,28,1067,44,1120,44C1173.3,44,1227,28,1280,20C1333.3,12,1387,12,1440,20C1493.3,28,1547,44,1600,58C1653.3,72,1707,84,1760,82C1813.3,80,1867,64,1920,58C1973.3,52,2027,56,2080,66C2133.3,76,2187,92,2240,92C2293.3,92,2347,76,2400,58C2453.3,40,2507,20,2560,12C2613.3,4,2667,8,2720,8C2773.3,8,2827,4,2880,14C2933.3,24,2987,48,3040,64C3093.3,80,3147,88,3200,90C3253.3,92,3307,88,3360,82C3413.3,76,3467,68,3520,56C3573.3,44,3627,28,3680,20C3733.3,12,3787,12,3813,12L3840,12L3840,120L3813.3,120C3786.7,120,3733,120,3680,120C3626.7,120,3573,120,3520,120C3466.7,120,3413,120,3360,120C3306.7,120,3253,120,3200,120C3146.7,120,3093,120,3040,120C2986.7,120,2933,120,2880,120C2826.7,120,2773,120,2720,120C2666.7,120,2613,120,2560,120C2506.7,120,2453,120,2400,120C2346.7,120,2293,120,2240,120C2186.7,120,2133,120,2080,120C2026.7,120,1973,120,1920,120C1866.7,120,1813,120,1760,120C1706.7,120,1653,120,1600,120C1546.7,120,1493,120,1440,120C1386.7,120,1333,120,1280,120C1226.7,120,1173,120,1120,120C1066.7,120,1013,120,960,120C906.7,120,853,120,800,120C746.7,120,693,120,640,120C586.7,120,533,120,480,120C426.7,120,373,120,320,120C266.7,120,213,120,160,120C106.7,120,53,120,27,120L0,120Z"/></svg>